<?xml version="1.0" encoding="UTF-8" standalone="no"?>
<!-- Created with Inkscape (http://www.inkscape.org/) -->

<svg
   xmlns:dc="http://purl.org/dc/elements/1.1/"
   xmlns:cc="http://creativecommons.org/ns#"
   xmlns:rdf="http://www.w3.org/1999/02/22-rdf-syntax-ns#"
   xmlns:svg="http://www.w3.org/2000/svg"
   xmlns="http://www.w3.org/2000/svg"
   xmlns:sodipodi="http://sodipodi.sourceforge.net/DTD/sodipodi-0.dtd"
   xmlns:inkscape="http://www.inkscape.org/namespaces/inkscape"
   width="210mm"
   height="297mm"
   viewBox="0 0 210 297"
   version="1.1"
   id="svg8"
   sodipodi:docname="optodyne.svg"
   inkscape:version="0.92.4 (5da689c313, 2019-01-14)">
  <defs
     id="defs2" />
  <sodipodi:namedview
     id="base"
     pagecolor="#ffffff"
     bordercolor="#666666"
     borderopacity="1.0"
     inkscape:pageopacity="0.0"
     inkscape:pageshadow="2"
     inkscape:zoom="0.5361069"
     inkscape:cx="595.24842"
     inkscape:cy="580.15374"
     inkscape:document-units="mm"
     inkscape:current-layer="layer1"
     showgrid="false"
     inkscape:window-width="1680"
     inkscape:window-height="1027"
     inkscape:window-x="-8"
     inkscape:window-y="-8"
     inkscape:window-maximized="1" />
  <metadata
     id="metadata5">
    <rdf:RDF>
      <cc:Work
         rdf:about="">
        <dc:format>image/svg+xml</dc:format>
        <dc:type
           rdf:resource="http://purl.org/dc/dcmitype/StillImage" />
        <dc:title></dc:title>
      </cc:Work>
    </rdf:RDF>
  </metadata>
  <g
     inkscape:label="Layer 1"
     inkscape:groupmode="layer"
     id="layer1">
    <path
       style="fill:none;stroke:#000000;stroke-width:1;stroke-linecap:butt;stroke-linejoin:miter;stroke-miterlimit:4;stroke-dasharray:none;stroke-opacity:1"
       d="m 45.148023,132.92063 c 21.03952,-31.71358 39.88819,0 39.88819,0"
       id="path3723"
       inkscape:connector-curvature="0"
       sodipodi:nodetypes="cc" />
    <path
       style="fill:none;stroke:#000000;stroke-width:0.80000001;stroke-linecap:butt;stroke-linejoin:miter;stroke-miterlimit:4;stroke-dasharray:none;stroke-opacity:1"
       d="m 85.036213,132.92063 c -21.66521,31.82199 -39.88819,0 -39.88819,0"
       id="path3723-0"
       inkscape:connector-curvature="0"
       sodipodi:nodetypes="cc" />
    <path
       style="stroke-width:0.16536458"
       d="m 65.226233,120.48061 a 12.499999,12.499999 0 0 0 -12.50002,12.50001 12.499999,12.499999 0 0 0 0.002,0.0372 h 24.99586 a 12.499999,12.499999 0 0 0 0.002,-0.0372 12.499999,12.499999 0 0 0 -12.49949,-12.50001 z m -12.48296,12.80025 a 12.499999,12.499999 0 0 0 0.0222,0.38602 h 24.92974 a 12.499999,12.499999 0 0 0 0.017,-0.38602 z m 0.0589,0.97772 a 12.499999,12.499999 0 0 0 0.12867,0.88935 h 24.58971 a 12.499999,12.499999 0 0 0 0.11783,-0.88935 z m 0.43769,2.22209 a 12.499999,12.499999 0 0 0 0.76998,1.99987 h 22.42396 a 12.499999,12.499999 0 0 0 0.76843,-1.99987 z m 2.83549,5.00021 a 12.499999,12.499999 0 0 0 9.15086,3.99975 12.499999,12.499999 0 0 0 9.14311,-3.99975 z"
       id="path3740"
       inkscape:connector-curvature="0" />
    <flowRoot
       xml:space="preserve"
       id="flowRoot4615"
       style="font-style:normal;font-weight:normal;font-size:85.33333588px;line-height:1.25;font-family:sans-serif;letter-spacing:0px;word-spacing:0px;fill:#000000;fill-opacity:1;stroke:none"
       transform="matrix(0.26458333,0,0,0.26458333,-64.037174,-30.535437)"><flowRegion
         id="flowRegion4617"
         style="font-size:85.33333588px"><rect
           id="rect4619"
           width="331.06046"
           height="209.05615"
           x="551.32782"
           y="586.35999"
           style="font-size:85.33333588px" /></flowRegion><flowPara
         id="flowPara4621"
         style="font-style:normal;font-variant:normal;font-weight:normal;font-stretch:normal;font-size:85.33333588px;font-family:'Bauhaus 93';-inkscape-font-specification:'Bauhaus 93, '">ptodyne</flowPara></flowRoot>    <flowRoot
       xml:space="preserve"
       id="flowRoot4623"
       style="font-style:normal;font-variant:normal;font-weight:normal;font-stretch:normal;font-size:40px;line-height:1.25;font-family:Mistral;-inkscape-font-specification:Mistral;letter-spacing:0px;word-spacing:0px;fill:#000000;fill-opacity:1;stroke:none"
       transform="scale(0.26458333)"><flowRegion
         id="flowRegion4625"
         style="font-style:normal;font-variant:normal;font-weight:normal;font-stretch:normal;font-family:Mistral;-inkscape-font-specification:Mistral"><rect
           id="rect4627"
           width="260.49579"
           height="112.77159"
           x="253.24147"
           y="602.84705"
           style="font-style:normal;font-variant:normal;font-weight:normal;font-stretch:normal;font-family:Mistral;-inkscape-font-specification:Mistral" /></flowRegion><flowPara
         id="flowPara4629" /></flowRoot>  </g>
</svg>
